<?xml version="1.0" standalone="no"?>
<!DOCTYPE svg PUBLIC "-//W3C//DTD SVG 20010904//EN"
 "http://www.w3.org/TR/2001/REC-SVG-20010904/DTD/svg10.dtd">
<svg version="1.0" xmlns="http://www.w3.org/2000/svg"
 width="613.000000pt" height="613.000000pt" viewBox="0 0 613.000000 613.000000"
 preserveAspectRatio="xMidYMid meet">
<metadata>
Created by potrace 1.14, written by Peter Selinger 2001-2017
</metadata>
<g transform="translate(0.000000,613.000000) scale(0.100000,-0.100000)"
fill="#000000" stroke="none">
<path d="M3060 6108 c-25 -11 -81 -35 -125 -53 -44 -18 -149 -62 -234 -98
l-155 -65 35 -15 c36 -15 392 -174 469 -210 25 -11 47 -21 50 -22 3 0 25 -10
50 -22 82 -38 325 -145 350 -155 25 -9 6 -21 -186 -108 -23 -11 -95 -45 -160
-76 -65 -31 -146 -69 -179 -84 -33 -15 -141 -66 -240 -113 -99 -46 -218 -103
-265 -125 -47 -22 -125 -58 -175 -82 -49 -23 -117 -55 -150 -70 -33 -16 -105
-50 -160 -75 -55 -26 -136 -64 -180 -85 -44 -21 -125 -59 -180 -84 -358 -168
-335 -149 -240 -201 96 -52 140 -78 158 -93 9 -8 17 -11 17 -7 0 4 8 1 18 -7
15 -13 124 -77 276 -162 28 -15 60 -34 70 -42 22 -15 -132 -91 1942 961 l302
153 313 -139 c173 -77 328 -146 344 -154 17 -7 50 -22 75 -33 25 -11 70 -31
100 -45 172 -78 336 -150 345 -150 6 0 28 11 50 25 22 14 60 36 85 50 90 50
395 230 404 239 6 5 2 11 -10 15 -17 6 -320 132 -369 153 -60 27 -96 42 -155
65 -36 15 -74 31 -85 36 -11 5 -119 50 -240 100 -121 50 -233 97 -250 105 -16
7 -237 99 -490 205 -253 106 -473 198 -490 205 -80 36 -653 273 -670 278 -11
3 -40 -4 -65 -15z"/>
<path d="M166 4708 c14 -97 19 -137 29 -227 4 -30 8 -62 10 -71 2 -10 8 -62
15 -116 6 -55 13 -110 15 -124 2 -14 7 -47 10 -75 3 -27 8 -63 10 -80 17 -129
26 -205 30 -235 10 -82 26 -207 30 -235 2 -16 7 -52 10 -80 3 -27 8 -61 10
-75 3 -14 7 -52 10 -85 3 -33 8 -71 10 -85 3 -14 7 -47 11 -75 3 -27 7 -61 9
-75 2 -14 7 -47 10 -75 12 -96 17 -130 20 -134 3 -3 392 -274 479 -333 10 -7
28 -20 40 -29 11 -8 53 -37 91 -64 212 -147 252 -175 267 -187 10 -7 68 -48
130 -91 520 -361 863 -604 865 -614 1 -6 5 -107 9 -223 5 -177 4 -211 -8 -204
-7 4 -60 42 -118 84 -58 42 -238 173 -400 290 -162 117 -342 248 -400 290 -58
42 -278 202 -490 355 -212 153 -391 283 -399 289 -12 9 -13 0 -6 -59 4 -39 9
-77 10 -86 2 -9 6 -40 9 -70 4 -30 9 -72 12 -94 9 -65 12 -85 25 -190 l13
-100 65 -50 c36 -28 308 -235 604 -460 768 -584 1003 -763 1442 -1098 154
-118 282 -213 284 -211 2 2 5 414 7 916 l4 913 -193 126 c-367 241 -633 416
-737 484 -107 70 -328 214 -595 390 -82 54 -242 159 -355 233 -113 74 -206
135 -208 137 -5 4 -10 41 -17 121 -3 43 -8 93 -10 109 -2 17 -7 55 -10 85 -2
30 -7 81 -10 114 -7 69 -9 69 92 3 37 -24 250 -158 473 -297 223 -138 421
-262 440 -275 19 -12 127 -80 240 -150 113 -70 246 -154 295 -185 50 -31 128
-80 175 -109 47 -29 159 -99 250 -156 91 -57 167 -99 170 -95 3 4 5 192 5 416
l0 408 -132 78 c-73 42 -152 88 -175 101 -37 21 -370 213 -463 267 -192 112
-565 326 -582 334 -13 6 -23 14 -23 19 0 4 -4 7 -10 7 -5 0 -166 91 -357 201
-192 111 -364 211 -383 221 -99 57 -562 324 -603 349 -27 16 -52 29 -56 29 -4
0 -2 -42 5 -92z"/>
<path d="M5915 4776 c-160 -93 -429 -248 -470 -271 -27 -15 -57 -34 -66 -41
-8 -8 -18 -14 -21 -14 -3 0 -137 -77 -299 -171 -162 -95 -307 -179 -324 -189
-16 -9 -176 -102 -355 -207 -632 -368 -950 -553 -983 -572 -19 -11 -65 -38
-102 -60 -37 -23 -71 -41 -75 -41 -4 0 -10 -6 -13 -14 -6 -14 -6 -65 -13
-1989 l-4 -1209 63 50 c34 27 170 131 302 232 132 101 241 184 243 185 2 1 5
54 7 116 3 63 7 166 10 229 3 63 7 183 10 265 3 83 8 202 11 265 2 63 6 174 9
245 3 72 7 184 9 250 3 66 8 185 11 265 3 80 8 195 10 255 3 61 7 184 11 275
3 91 7 166 7 167 1 1 286 180 632 398 347 219 661 417 698 442 87 56 101 62
94 37 -3 -10 -8 -56 -12 -101 -3 -46 -8 -91 -9 -100 -2 -10 -7 -49 -11 -88 -4
-38 -8 -79 -10 -90 -1 -11 -3 -35 -4 -53 -1 -32 -15 -42 -553 -398 -674 -446
-633 -416 -634 -445 -1 -13 -5 -89 -8 -169 -4 -80 -9 -172 -11 -205 -2 -33 -7
-120 -10 -193 l-7 -133 44 28 c23 15 48 32 53 36 68 53 122 87 132 83 6 -3
157 -114 335 -247 177 -133 327 -242 333 -242 11 0 609 455 619 471 3 5 -5 18
-17 29 -19 17 -136 139 -426 443 -44 47 -81 87 -81 90 1 6 45 39 213 156 70
49 196 138 280 197 83 60 157 112 163 115 7 4 15 32 18 62 9 73 15 119 20 155
3 17 14 104 26 195 11 91 23 176 25 190 2 14 7 45 10 70 6 50 14 112 20 150 2
14 7 52 11 85 3 33 8 68 10 79 2 10 6 44 9 75 4 31 8 63 10 71 2 8 7 42 11 75
3 33 8 67 9 76 2 9 6 40 10 70 3 30 8 65 10 79 4 24 10 71 20 150 3 19 12 89
21 155 25 195 26 205 23 205 -2 0 -22 -11 -44 -24z"/>
</g>
</svg>
